<svg width="40" height="40" viewBox="0 0 40 40" fill="none" xmlns="http://www.w3.org/2000/svg">
<path d="M33.5779 34.0141V23.7513C33.5779 18.6541 30.7436 14.2141 26.5779 11.8884C27.0693 11.4655 27.3893 10.8484 27.3893 10.1455C27.3893 9.00837 26.555 8.06553 25.4693 7.87123L26.5607 4.16839C26.7664 3.39125 26.6007 2.57411 26.1036 1.9398C25.6121 1.2998 24.8693 0.934082 24.0636 0.934082C23.235 0.934082 22.5036 1.31696 22.035 1.91696C21.995 1.87123 21.9664 1.8141 21.9264 1.7741C21.4407 1.23696 20.7436 0.934082 20.0236 0.934082H19.9607C19.2407 0.934082 18.5436 1.23696 18.0579 1.7741C18.0179 1.8141 17.9893 1.87123 17.9493 1.91696C17.4807 1.31696 16.7493 0.934082 15.9264 0.934082C15.115 0.934082 14.3721 1.2998 13.8807 1.9398C13.3835 2.57412 13.2179 3.39125 13.4293 4.18551L14.515 7.87123C13.4293 8.06553 12.6007 9.00837 12.6007 10.1455C12.6007 10.8484 12.915 11.4655 13.4064 11.8884C9.24069 14.2141 6.40642 18.6541 6.40642 23.7513V34.0141C5.70926 34.0141 5.07498 34.2941 4.61785 34.7513C4.16071 35.2084 3.875 35.8427 3.875 36.5398C3.875 37.9341 5.01214 39.0655 6.40642 39.0655H33.5778C34.9721 39.0655 36.1093 37.9341 36.1093 36.5398C36.1093 35.1455 34.9722 34.0141 33.5779 34.0141ZM22.6236 3.39125C22.6922 2.64268 23.3093 2.07694 24.0636 2.07694C24.5093 2.07694 24.9264 2.28268 25.2007 2.63696C25.475 2.99125 25.5664 3.44838 25.4579 3.86551L24.2922 7.83122H22.195L22.6236 3.39125ZM18.9036 2.54552C19.1779 2.24268 19.555 2.07694 19.9607 2.07694H20.0236C20.4293 2.07694 20.8065 2.24268 21.0865 2.54552C21.355 2.83695 21.4807 3.21411 21.4579 3.60268L21.0464 7.83123H18.9379L18.5264 3.61409C18.5036 3.21411 18.6293 2.83695 18.9036 2.54552ZM14.7836 2.63696C15.0579 2.28268 15.475 2.07694 15.9264 2.07694C16.675 2.07694 17.2922 2.64268 17.3607 3.39697L17.7893 7.83123H15.6979L14.5321 3.88268C14.4179 3.44838 14.5093 2.99125 14.7836 2.63696ZM14.915 8.97409H25.075C25.7207 8.97409 26.2464 9.49983 26.2464 10.1455C26.2464 10.7912 25.7207 11.317 25.075 11.317H14.915C14.2693 11.317 13.7436 10.7912 13.7436 10.1455C13.7436 9.49983 14.2693 8.97409 14.915 8.97409ZM7.54931 23.7513C7.54931 18.7398 10.5379 14.4198 14.8179 12.4541C14.8464 12.4541 14.8807 12.4598 14.915 12.4598H25.075C25.1036 12.4598 25.1379 12.4541 25.1664 12.4541C29.4465 14.4198 32.435 18.7398 32.435 23.7513V34.0084H7.54931V23.7513ZM33.5779 37.9227H6.40645C5.64072 37.9227 5.01789 37.2998 5.01789 36.5398C5.01789 35.7741 5.64073 35.157 6.40645 35.157H33.5779C34.3436 35.157 34.9664 35.7741 34.9664 36.5398C34.9664 37.2998 34.3436 37.9227 33.5779 37.9227Z" fill="#8753D4"/>
<path d="M34.9681 36.5396C34.9681 37.2996 34.3452 37.9225 33.5795 37.9225H6.4081C5.64237 37.9225 5.01953 37.2996 5.01953 36.5396C5.01953 35.7739 5.64237 35.1567 6.4081 35.1567H33.5795C34.3452 35.1567 34.9681 35.7739 34.9681 36.5396Z" fill="#8753D4" fill-opacity="0.6"/>
<path d="M26.2411 10.1456C26.2411 10.7913 25.7154 11.317 25.0697 11.317H14.9097C14.264 11.317 13.7383 10.7913 13.7383 10.1456C13.7383 9.49986 14.264 8.97412 14.9097 8.97412H25.0697C25.7154 8.97412 26.2411 9.49986 26.2411 10.1456Z" fill="#8753D4" fill-opacity="0.6"/>
<path d="M19.9907 16.094C15.5393 16.094 11.9221 19.7169 11.9221 24.1683C11.9221 28.6197 15.5393 32.2426 19.9907 32.2426C24.4479 32.2426 28.0707 28.6197 28.0707 24.1683C28.0707 19.7169 24.4479 16.094 19.9907 16.094ZM19.9907 31.0997C16.1736 31.0997 13.065 27.9911 13.065 24.1683C13.065 20.3454 16.1735 17.2369 19.9907 17.2369C23.8135 17.2369 26.9278 20.3454 26.9278 24.1683C26.9278 27.9911 23.8136 31.0997 19.9907 31.0997Z" fill="#8753D4"/>
<path d="M19.9882 17.2371C16.1711 17.2371 13.0625 20.3456 13.0625 24.1685C13.0625 27.9913 16.1711 31.0999 19.9882 31.0999C23.8111 31.0999 26.9254 27.9913 26.9254 24.1685C26.9254 20.3456 23.8111 17.2371 19.9882 17.2371ZM19.9997 23.5971C21.1311 23.5971 22.0568 24.5228 22.0568 25.6599C22.0568 26.5971 21.4225 27.3799 20.5711 27.6313V27.9628C20.5711 28.2828 20.3139 28.5342 19.9997 28.5342C19.6797 28.5342 19.4282 28.2828 19.4282 27.9628V27.6313C18.5711 27.3799 17.9368 26.5971 17.9368 25.6599C17.9368 25.3456 18.194 25.0885 18.5082 25.0885C18.8225 25.0885 19.0797 25.3456 19.0797 25.6599C19.0797 26.1628 19.4911 26.5742 19.9997 26.5742C20.5025 26.5742 20.914 26.1628 20.914 25.6599C20.914 25.1513 20.5025 24.7399 19.9997 24.7399C18.8625 24.7399 17.9368 23.8199 17.9368 22.6828C17.9368 21.7456 18.5711 20.9628 19.4282 20.7114V20.3742C19.4282 20.0599 19.6797 19.8028 19.9997 19.8028C20.3139 19.8028 20.5711 20.0599 20.5711 20.3742V20.7114C21.4225 20.9628 22.0568 21.7456 22.0568 22.6828C22.0568 22.9971 21.7997 23.2542 21.4854 23.2542C21.1711 23.2542 20.914 22.9971 20.914 22.6828C20.914 22.1742 20.5025 21.7628 19.9997 21.7628C19.4911 21.7628 19.0797 22.1742 19.0797 22.6828C19.0797 23.1856 19.4911 23.5971 19.9997 23.5971Z" fill="#8753D4" fill-opacity="0.6"/>
<path d="M22.0578 25.6596C22.0578 26.5968 21.4234 27.3796 20.572 27.6311V27.9625C20.572 28.2825 20.3149 28.5339 20.0006 28.5339C19.6806 28.5339 19.4292 28.2825 19.4292 27.9625V27.6311C18.572 27.3796 17.9377 26.5968 17.9377 25.6596C17.9377 25.3454 18.1949 25.0882 18.5092 25.0882C18.8235 25.0882 19.0806 25.3454 19.0806 25.6596C19.0806 26.1625 19.492 26.5739 20.0006 26.5739C20.5035 26.5739 20.9149 26.1625 20.9149 25.6596C20.9149 25.1511 20.5035 24.7396 20.0006 24.7396C18.8635 24.7396 17.9377 23.8196 17.9377 22.6825C17.9377 21.7454 18.572 20.9625 19.4292 20.7111V20.3739C19.4292 20.0596 19.6806 19.8025 20.0006 19.8025C20.3149 19.8025 20.572 20.0596 20.572 20.3739V20.7111C21.4234 20.9625 22.0578 21.7454 22.0578 22.6825C22.0578 22.9968 21.8006 23.2539 21.4863 23.2539C21.172 23.2539 20.9149 22.9968 20.9149 22.6825C20.9149 22.1739 20.5035 21.7625 20.0006 21.7625C19.492 21.7625 19.0806 22.1739 19.0806 22.6825C19.0806 23.1853 19.492 23.5968 20.0006 23.5968C21.132 23.5968 22.0578 24.5225 22.0578 25.6596Z" fill="white"/>
</svg>
