<svg width="40" height="40" viewBox="0 0 40 40" fill="none" xmlns="http://www.w3.org/2000/svg">
<path d="M37.1623 17.378L34.3771 16.615C34.0141 15.0595 33.3993 13.5854 32.5475 12.2224L33.9993 9.7039C34.2882 9.17798 34.1993 8.54094 33.7845 8.12612L31.866 6.20761C31.4512 5.79279 30.8141 5.7039 30.2808 6.0002L27.7697 7.44464C26.4141 6.59279 24.94 5.98538 23.3771 5.61501L22.6141 2.82983C22.4586 2.25205 21.9326 1.85205 21.34 1.85205H18.6437C18.0512 1.85205 17.5252 2.25205 17.3697 2.82983L16.6141 5.61501C15.0437 5.98538 13.5697 6.59279 12.2141 7.44464L9.6956 6.0002C9.16968 5.7039 8.53264 5.79279 8.11782 6.20761L6.19931 8.12612C5.78449 8.54094 5.6956 9.17798 5.9919 9.71131L7.43634 12.2298C6.58449 13.5928 5.96968 15.0669 5.60671 16.615L2.82153 17.378C2.24375 17.5335 1.84375 18.0595 1.84375 18.6521V21.3483C1.84375 21.9409 2.24375 22.4669 2.82153 22.6224L5.60671 23.378C5.97708 24.9483 6.58449 26.4298 7.43634 27.778L5.98449 30.2965C5.6956 30.8224 5.78449 31.4595 6.19931 31.8817L8.11782 33.7928C8.53264 34.2076 9.16967 34.2965 9.70301 34.0002L12.2067 32.5558C13.5771 33.4076 15.0512 34.0224 16.6141 34.3854L17.3697 37.1706C17.5252 37.7483 18.0512 38.1483 18.6437 38.1483H21.34C21.9326 38.1483 22.4586 37.7483 22.6141 37.178L23.3771 34.3854C24.94 34.0224 26.4215 33.4076 27.7771 32.5706L30.2808 34.0002C30.7993 34.2965 31.4512 34.2076 31.866 33.7928L33.7845 31.8817C34.1993 31.4595 34.2882 30.8076 33.9919 30.2891L32.5549 27.7854C33.3993 26.4298 34.0141 24.9483 34.3771 23.378L37.1623 22.6224C37.74 22.4669 38.14 21.9409 38.14 21.3483V18.6521C38.14 18.0595 37.74 17.5335 37.1623 17.378ZM37.3993 21.3483C37.3993 21.6076 37.2215 21.8372 36.9697 21.9113L33.9697 22.7187C33.8289 22.7558 33.7326 22.8669 33.703 23.0002C33.3474 24.6446 32.7104 26.178 31.8141 27.5706C31.74 27.6891 31.7326 27.8372 31.8067 27.9558L33.3549 30.6595C33.4808 30.8891 33.4437 31.1706 33.2586 31.3558L31.3475 33.2669C31.1549 33.452 30.8808 33.4891 30.6512 33.3632L27.9475 31.815C27.8289 31.7483 27.6808 31.7483 27.5623 31.8224C26.1697 32.7261 24.6289 33.3557 22.9993 33.7113C22.866 33.7409 22.7549 33.8446 22.7178 33.978L21.8956 36.978C21.8289 37.2298 21.5993 37.4076 21.34 37.4076H18.6437C18.3845 37.4076 18.1549 37.2298 18.0882 36.978L17.2734 33.978C17.2363 33.8446 17.1252 33.7409 16.9919 33.7113C15.3623 33.3557 13.8215 32.7187 12.4215 31.815C12.3623 31.778 12.2882 31.7558 12.2215 31.7558C12.1549 31.7558 12.0882 31.7706 12.0363 31.8076L9.34005 33.3557C9.10301 33.4891 8.82153 33.452 8.63634 33.2669L6.72523 31.3558C6.54005 31.1706 6.50301 30.8891 6.63634 30.6595L8.18449 27.9483C8.25856 27.8298 8.25116 27.6817 8.17708 27.5632C7.27338 26.178 6.63634 24.6372 6.28079 23.0002C6.25116 22.8669 6.15486 22.7558 6.02153 22.7187L3.01412 21.9113C2.76227 21.8372 2.58449 21.6076 2.58449 21.3483V18.6521C2.58449 18.3928 2.76227 18.1632 3.01412 18.0965L6.02153 17.2743C6.15486 17.2372 6.25116 17.1261 6.28079 16.9928C6.63634 15.378 7.27338 13.8446 8.17708 12.4372C8.25116 12.3187 8.25856 12.1706 8.18449 12.052L6.63634 9.34835C6.50301 9.11131 6.54005 8.82983 6.72523 8.64464L8.63634 6.73353C8.82153 6.54835 9.10301 6.51872 9.33264 6.64464L12.0437 8.2002C12.1623 8.26686 12.3104 8.25946 12.4289 8.18538C13.8215 7.28168 15.3549 6.64464 16.9919 6.28909C17.1252 6.25946 17.2363 6.16316 17.2734 6.02983L18.0882 3.02242C18.1549 2.77057 18.3845 2.59279 18.6437 2.59279H21.34C21.5993 2.59279 21.8289 2.77057 21.8956 3.02242L22.7178 6.02983C22.7549 6.16316 22.866 6.25946 22.9993 6.28909C24.6363 6.64464 26.1697 7.28168 27.5549 8.18538C27.6734 8.25946 27.8215 8.26686 27.94 8.2002L30.6437 6.64464C30.8808 6.51131 31.1623 6.55575 31.3475 6.73353L33.2586 8.64464C33.4437 8.82983 33.4808 9.11131 33.3549 9.34094L31.7993 12.0446C31.7252 12.1632 31.7326 12.3113 31.8067 12.4298C32.7104 13.8372 33.3549 15.3706 33.703 16.9928C33.7326 17.1261 33.8289 17.2372 33.9623 17.2743L36.9697 18.0965C37.2215 18.1632 37.3993 18.3928 37.3993 18.6521V21.3483Z" fill="#8753D4"/>
<path d="M36.975 18.0965L33.9676 17.2743C33.8343 17.2372 33.738 17.1261 33.7084 16.9928C33.3602 15.3706 32.7158 13.8372 31.8121 12.4298C31.738 12.3113 31.7306 12.1631 31.8047 12.0446L33.3602 9.34092C33.4861 9.11129 33.4491 8.82981 33.2639 8.64463L31.3528 6.73351C31.1676 6.55574 30.8861 6.51129 30.6491 6.64463L27.9454 8.20018C27.8269 8.26685 27.6787 8.25944 27.5602 8.18537C26.175 7.28166 24.6417 6.64463 23.0047 6.28907C22.8713 6.25944 22.7602 6.16314 22.7232 6.02981L21.901 3.0224C21.8343 2.77055 21.6047 2.59277 21.3454 2.59277H18.6491C18.3898 2.59277 18.1602 2.77055 18.0935 3.0224L17.2787 6.02981C17.2417 6.16314 17.1306 6.25944 16.9973 6.28907C15.3602 6.64463 13.8269 7.28166 12.4343 8.18537C12.3158 8.25944 12.1676 8.26685 12.0491 8.20018L9.33799 6.64463C9.10836 6.5187 8.82688 6.54833 8.6417 6.73351L6.73058 8.64463C6.5454 8.82981 6.50836 9.11129 6.6417 9.34833L8.18984 12.052C8.26392 12.1706 8.25651 12.3187 8.18244 12.4372C7.27873 13.8446 6.6417 15.378 6.28614 16.9928C6.25651 17.1261 6.16021 17.2372 6.02688 17.2743L3.01947 18.0965C2.76762 18.1631 2.58984 18.3928 2.58984 18.652V21.3483C2.58984 21.6076 2.76762 21.8372 3.01947 21.9113L6.02688 22.7187C6.16021 22.7557 6.25651 22.8668 6.28614 23.0002C6.6417 24.6372 7.27873 26.178 8.18244 27.5631C8.25651 27.6817 8.26392 27.8298 8.18984 27.9483L6.6417 30.6594C6.50836 30.8891 6.5454 31.1706 6.73058 31.3557L8.6417 33.2668C8.82688 33.452 9.10836 33.4891 9.3454 33.3557L12.0417 31.8076C12.0935 31.7706 12.1602 31.7557 12.2269 31.7557C12.2935 31.7557 12.3676 31.778 12.4269 31.815C13.8269 32.7187 15.3676 33.3557 16.9973 33.7113C17.1306 33.7409 17.2417 33.8446 17.2787 33.978L18.0935 36.978C18.1602 37.2298 18.3898 37.4076 18.6491 37.4076H21.3454C21.6047 37.4076 21.8343 37.2298 21.901 36.978L22.7232 33.978C22.7602 33.8446 22.8713 33.7409 23.0047 33.7113C24.6343 33.3557 26.175 32.7261 27.5676 31.8224C27.6861 31.7483 27.8343 31.7483 27.9528 31.815L30.6565 33.3631C30.8861 33.4891 31.1602 33.452 31.3528 33.2668L33.2639 31.3557C33.4491 31.1706 33.4861 30.8891 33.3602 30.6594L31.8121 27.9557C31.738 27.8372 31.7454 27.6891 31.8195 27.5706C32.7158 26.178 33.3528 24.6446 33.7084 23.0002C33.738 22.8668 33.8343 22.7557 33.975 22.7187L36.975 21.9113C37.2269 21.8372 37.4047 21.6076 37.4047 21.3483V18.652C37.4047 18.3928 37.2269 18.1631 36.975 18.0965ZM19.9973 29.978C14.4935 29.978 10.0195 25.5039 10.0195 20.0002C10.0195 14.4965 14.4935 10.0224 19.9973 10.0224C25.501 10.0224 29.975 14.4965 29.975 20.0002C29.975 25.5039 25.501 29.978 19.9973 29.978Z" fill="#8753D4" fill-opacity="0.6"/>
<path d="M19.9934 10.0225C14.4897 10.0225 10.0156 14.4965 10.0156 20.0002C10.0156 25.5039 14.4897 29.978 19.9934 29.978C25.4971 29.978 29.9712 25.5039 29.9712 20.0002C29.9712 14.4965 25.4971 10.0225 19.9934 10.0225ZM19.9934 29.2373C14.8971 29.2373 10.7564 25.0965 10.7564 20.0002C10.7564 14.9039 14.8971 10.7632 19.9934 10.7632C25.0897 10.7632 29.2304 14.9039 29.2304 20.0002C29.2304 25.0965 25.0897 29.2373 19.9934 29.2373Z" fill="#8753D4"/>
<path d="M19.9883 13.2148C16.2476 13.2148 13.2031 16.2593 13.2031 20C13.2031 23.7408 16.2476 26.7852 19.9883 26.7852C23.7291 26.7852 26.7735 23.7408 26.7735 20C26.7735 16.2593 23.7291 13.2148 19.9883 13.2148ZM19.9883 26.0445C16.655 26.0445 13.9439 23.3334 13.9439 20C13.9439 16.6667 16.655 13.9556 19.9883 13.9556C23.3216 13.9556 26.0328 16.6667 26.0328 20C26.0328 23.3334 23.3216 26.0445 19.9883 26.0445Z" fill="#8753D4"/>
<path d="M19.9937 13.9561C16.6603 13.9561 13.9492 16.6672 13.9492 20.0005C13.9492 23.3338 16.6603 26.0449 19.9937 26.0449C23.327 26.0449 26.0381 23.3338 26.0381 20.0005C26.0381 16.6672 23.327 13.9561 19.9937 13.9561ZM19.9937 19.6301C21.0159 19.6301 21.8455 20.4598 21.8455 21.482C21.8455 22.3783 21.2085 23.119 20.364 23.2968V23.7561C20.364 23.9561 20.2011 24.1264 19.9937 24.1264C19.7863 24.1264 19.6233 23.9561 19.6233 23.7561V23.2968C18.7788 23.119 18.1418 22.3783 18.1418 21.482C18.1418 21.2746 18.3122 21.1116 18.5122 21.1116C18.7196 21.1116 18.8826 21.2746 18.8826 21.482C18.8826 22.0968 19.3788 22.5931 19.9937 22.5931C20.6085 22.5931 21.1048 22.0968 21.1048 21.482C21.1048 20.8672 20.6085 20.3709 19.9937 20.3709C18.9714 20.3709 18.1418 19.5412 18.1418 18.519C18.1418 17.6301 18.7788 16.882 19.6233 16.7116V16.2524C19.6233 16.0449 19.7863 15.882 19.9937 15.882C20.2011 15.882 20.364 16.0449 20.364 16.2524V16.7116C21.2085 16.882 21.8455 17.6301 21.8455 18.519C21.8455 18.7264 21.6751 18.8894 21.4751 18.8894C21.2677 18.8894 21.1048 18.7264 21.1048 18.519C21.1048 17.9116 20.6085 17.4153 19.9937 17.4153C19.3788 17.4153 18.8826 17.9116 18.8826 18.519C18.8826 19.1338 19.3788 19.6301 19.9937 19.6301Z" fill="#8753D4" fill-opacity="0.6"/>
<path d="M21.8443 21.4818C21.8443 22.3781 21.2073 23.1189 20.3628 23.2967V23.7559C20.3628 23.9559 20.1999 24.1263 19.9925 24.1263C19.7851 24.1263 19.6221 23.9559 19.6221 23.7559V23.2967C18.7777 23.1189 18.1406 22.3781 18.1406 21.4818C18.1406 21.2744 18.311 21.1115 18.511 21.1115C18.7184 21.1115 18.8814 21.2744 18.8814 21.4818C18.8814 22.0967 19.3777 22.5929 19.9925 22.5929C20.6073 22.5929 21.1036 22.0967 21.1036 21.4818C21.1036 20.867 20.6073 20.3707 19.9925 20.3707C18.9703 20.3707 18.1406 19.5411 18.1406 18.5189C18.1406 17.63 18.7777 16.8818 19.6221 16.7115V16.2522C19.6221 16.0448 19.7851 15.8818 19.9925 15.8818C20.1999 15.8818 20.3628 16.0448 20.3628 16.2522V16.7115C21.2073 16.8818 21.8443 17.63 21.8443 18.5189C21.8443 18.7263 21.674 18.8892 21.474 18.8892C21.2666 18.8892 21.1036 18.7263 21.1036 18.5189C21.1036 17.9115 20.6073 17.4152 19.9925 17.4152C19.3777 17.4152 18.8814 17.9115 18.8814 18.5189C18.8814 19.1337 19.3777 19.63 19.9925 19.63C21.0147 19.63 21.8443 20.4596 21.8443 21.4818Z" fill="white"/>
</svg>
