<svg width="40" height="40" viewBox="0 0 40 40" fill="none" xmlns="http://www.w3.org/2000/svg">
<path d="M33.6562 12.7902H25.8005V8.95799C25.8005 5.76829 23.2074 3.18286 20.0254 3.18286H7.22825C4.03856 3.18286 1.45312 5.76829 1.45312 8.95799V21.7627C1.45312 24.7536 3.74022 27.2243 6.73108 27.5073V30.1309C6.73108 31.6608 8.52096 32.4869 9.68366 31.5002L14.3803 27.5379H18.1666V28.2875C18.1666 30.98 20.3619 33.1753 23.0544 33.1753H27.6975L31.5527 36.4339C32.5853 37.3135 34.1687 36.5792 34.1687 35.2253V33.1524C36.6241 32.8923 38.544 30.8117 38.544 28.2875V17.6781C38.544 14.9856 36.3487 12.7902 33.6562 12.7902ZM14.1737 26.3905C14.036 26.3905 13.906 26.4364 13.7989 26.5205L8.94171 30.6281C8.52097 30.98 7.87846 30.6817 7.87846 30.1309V26.9642C7.87846 26.6429 7.5419 26.3905 7.22825 26.3905C4.67345 26.3905 2.6005 24.3099 2.6005 21.7627V8.95799C2.6005 6.40314 4.67344 4.33024 7.22825 4.33024H20.0254C22.5725 4.33024 24.6531 6.40314 24.6531 8.95799V21.7627C24.6531 24.3099 22.5725 26.3905 20.0254 26.3905H14.1737ZM37.3967 28.2875C37.3967 30.3528 35.7215 32.0279 33.595 32.0279C33.2814 32.0279 33.0213 32.288 33.0213 32.6016V35.2253C33.0213 35.6001 32.5853 35.8066 32.2947 35.5619L28.2712 32.1656C28.1717 32.0738 28.0417 32.0279 27.904 32.0279H23.0544C20.9892 32.0279 19.314 30.3528 19.314 28.2875V27.5378H20.0254C23.2074 27.5378 25.8005 24.9448 25.8005 21.7627V13.9376H33.6562C35.7215 13.9376 37.3967 15.6128 37.3967 17.6781L37.3967 28.2875Z" fill="#8753D4"/>
<path d="M37.3951 17.6782V28.2876C37.3951 30.3529 35.72 32.0281 33.5935 32.0281C33.2799 32.0281 33.0198 32.2881 33.0198 32.6017V35.2255C33.0198 35.6003 32.5838 35.8068 32.2932 35.562L28.2697 32.1658C28.1702 32.074 28.0402 32.0281 27.9025 32.0281H23.0529C20.9877 32.0281 19.3125 30.3529 19.3125 28.2876V27.538H20.0239C23.2059 27.538 25.799 24.9449 25.799 21.7629V13.9377H33.6547C35.72 13.9377 37.3951 15.6129 37.3951 17.6782Z" fill="#8753D4" fill-opacity="0.6"/>
<path d="M13.1979 7.41284C8.82252 7.41284 5.26562 10.9774 5.26562 15.3527C5.26562 19.7281 8.82252 23.2849 13.1979 23.2849C17.5808 23.2849 21.1377 19.7281 21.1377 15.3527C21.1377 10.9774 17.5808 7.41284 13.1979 7.41284ZM13.1979 22.1375C9.45741 22.1375 6.41301 19.0932 6.41301 15.3527C6.41301 11.6046 9.45741 8.56021 13.1979 8.56021C16.946 8.56021 19.9903 11.6046 19.9903 15.3527C19.9903 19.0932 16.946 22.1375 13.1979 22.1375Z" fill="#8753D4"/>
<path d="M13.195 8.5603C9.45456 8.5603 6.41016 11.6047 6.41016 15.3528C6.41016 19.0933 9.45456 22.1376 13.195 22.1376C16.9431 22.1376 19.9875 19.0933 19.9875 15.3528C19.9875 11.6047 16.9431 8.5603 13.195 8.5603ZM17.708 17.9535C17.2797 18.6955 16.2394 18.9709 15.5051 18.5349L14.809 18.1294V18.9479C14.809 19.8352 14.0823 20.5542 13.195 20.5542C12.2924 20.5542 11.5887 19.8123 11.5887 18.9479V18.1294L10.885 18.5349C10.12 18.9861 9.13331 18.7261 8.68964 17.9535C8.24597 17.181 8.51368 16.1942 9.27859 15.7506L9.98235 15.3451L9.27859 14.9397C8.52133 14.5037 8.23832 13.5247 8.68964 12.7444C9.118 12.0101 10.1047 11.7194 10.8773 12.1478L11.5887 12.5609V11.75C11.5887 10.8627 12.3077 10.1437 13.195 10.1437C14.1129 10.1437 14.809 10.878 14.809 11.75V12.5609L15.5127 12.1554C16.2776 11.7118 17.2644 11.9719 17.708 12.7444C18.1746 13.5858 17.838 14.5191 17.119 14.9397L16.4153 15.3451L17.119 15.7506C17.6315 16.0489 17.9222 16.592 17.9222 17.1504C17.9222 17.4257 17.8534 17.7011 17.708 17.9535Z" fill="#8753D4" fill-opacity="0.6"/>
<path d="M17.1183 15.7502L16.4146 15.3447L17.1183 14.9394C17.8373 14.5187 18.1739 13.5854 17.7073 12.7441C17.2636 11.9715 16.2769 11.7114 15.512 12.1551L14.8083 12.5605V11.7497C14.8083 10.8776 14.1122 10.1433 13.1943 10.1433C12.307 10.1433 11.588 10.8623 11.588 11.7497V12.5605L10.8766 12.1474C10.104 11.719 9.11729 12.0097 8.68893 12.7441C8.23761 13.5243 8.52063 14.5034 9.27789 14.9394L9.98165 15.3447L9.27789 15.7502C8.51297 16.1938 8.24526 17.1806 8.68893 17.9532C9.1326 18.7257 10.1193 18.9858 10.8842 18.5345L11.588 18.1291V18.9475C11.588 19.8119 12.2917 20.5538 13.1943 20.5538C14.0816 20.5538 14.8083 19.8349 14.8083 18.9475V18.1291L15.5043 18.5345C16.2387 18.9705 17.279 18.6951 17.7073 17.9532C17.8526 17.7007 17.9215 17.4254 17.9215 17.15C17.9215 16.5916 17.6308 16.0485 17.1183 15.7502ZM16.7129 17.3795C16.5906 17.5936 16.3075 17.6778 16.0857 17.5477L14.5176 16.6375C14.1428 16.4233 13.6609 16.691 13.6609 17.1347V18.9475C13.6609 19.3223 13.1408 19.5442 12.873 19.2688C12.7812 19.1847 12.7353 19.0623 12.7353 18.9475V17.1347C12.7353 16.6987 12.2534 16.4233 11.871 16.6451L10.3105 17.5477C10.0887 17.6701 9.81333 17.6013 9.68331 17.3795C9.55329 17.1577 9.62976 16.8746 9.85157 16.7446L11.4197 15.842C11.8022 15.6202 11.8022 15.0694 11.4197 14.8476L9.85157 13.945C9.62976 13.8149 9.55329 13.5396 9.68331 13.3178C9.80568 13.1036 10.0887 13.0271 10.3105 13.1494L11.871 14.052C12.2534 14.2662 12.7353 13.9985 12.7353 13.5549V11.7497C12.7353 11.4972 12.9419 11.2907 13.1943 11.2907C13.4697 11.2907 13.6609 11.4972 13.6609 11.7497V13.5549C13.6609 13.9985 14.1428 14.2662 14.5176 14.052L16.0857 13.1494C16.3075 13.0194 16.5906 13.0959 16.7053 13.3101C16.8506 13.5625 16.7512 13.8226 16.5446 13.945L14.9765 14.8476C14.5941 15.0694 14.5941 15.6202 14.9765 15.842L16.5446 16.7446C16.7665 16.8746 16.843 17.1577 16.7129 17.3795Z" fill="#8753D4"/>
</svg>
