<?xml version="1.0" encoding="UTF-8"?>
<svg id="Layer_2" data-name="Layer 2" xmlns="http://www.w3.org/2000/svg" viewBox="0 0 32 32">
  <defs>
    <style>
      .cls-1 {
        fill: #fff;
        fill-rule: evenodd;
      }

      .cls-1, .cls-2 {
        stroke-width: 0px;
      }

      .cls-2 {
        fill: #8753d4;
      }
    </style>
  </defs>
  <g id="Layer_1-2" data-name="Layer 1">
    <circle class="cls-2" cx="16" cy="16" r="16"/>
    <path class="cls-1" d="m12.25,7.19c.56,0,1.06.27,1.36.69-.88.69-1.45,1.76-1.45,2.96,0,.97.37,1.86.98,2.53-2.56,1.09-4.36,3.6-4.36,6.52,0,3.92,3.23,7.1,7.21,7.1s7.21-3.18,7.21-7.1c0-2.92-1.79-5.44-4.36-6.52.61-.67.98-1.56.98-2.53,0-1.28-.64-2.41-1.63-3.09.31-.35.76-.57,1.26-.57.61,0,1.11-.49,1.11-1.09s-.5-1.09-1.11-1.09c-1.5,0-2.8.84-3.45,2.06h-.02c-.1,0-.2,0-.29.01-.65-1.23-1.95-2.07-3.45-2.07-.61,0-1.11.49-1.11,1.09s.5,1.09,1.11,1.09Zm-1.44,12.67c.02-2.8,2.33-5.07,5.18-5.07.82,0,1.6.19,2.3.53-.76.44-1.27,1.26-1.27,2.2,0,1.41,1.14,2.55,2.55,2.55.6,0,1.16-.21,1.59-.56.01.13.02.26.02.39,0,2.81-2.3,5.09-5.14,5.11.9-.67,1.48-1.73,1.48-2.93,0-2.03-1.67-3.68-3.73-3.68-1.21,0-2.29.57-2.97,1.45Z"/>
  </g>
</svg>