<svg width="38" height="50" viewBox="0 0 38 50" fill="none" xmlns="http://www.w3.org/2000/svg">
<path d="M36.2467 11.5305C35.9509 11.5305 35.7109 11.7705 35.7109 12.0662V21.0084C35.7109 21.3042 35.9509 21.5441 36.2467 21.5441C36.5424 21.5441 36.7824 21.3042 36.7824 21.0084V12.0662C36.7824 11.7705 36.5424 11.5305 36.2467 11.5305Z" fill="#8753D4"/>
<path d="M36.2467 8.20068C35.9509 8.20068 35.7109 8.44064 35.7109 8.7364V9.35512C35.7109 9.65088 35.9509 9.89083 36.2467 9.89083C36.5424 9.89083 36.7824 9.65088 36.7824 9.35512V8.7364C36.7824 8.44064 36.5424 8.20068 36.2467 8.20068Z" fill="#8753D4"/>
<path d="M1.7154 31.809C2.01116 31.809 2.25112 31.5691 2.25112 31.2733V30.9964C2.25112 30.7007 2.01116 30.4607 1.7154 30.4607C1.41964 30.4607 1.17969 30.7007 1.17969 30.9964V31.2733C1.17969 31.5691 1.41964 31.809 1.7154 31.809Z" fill="#8753D4"/>
<path d="M1.17969 40.4532C1.17969 40.7489 1.41964 40.9889 1.7154 40.9889C2.01116 40.9889 2.25112 40.7489 2.25112 40.4532V33.0257C2.25112 32.7299 2.01116 32.49 1.7154 32.49C1.41964 32.49 1.17969 32.7299 1.17969 33.0257V40.4532Z" fill="#8753D4"/>
<path d="M31.5259 2.14282H6.43304C5.07589 2.14282 3.96875 3.24996 3.96875 4.60712V45.3928C3.96875 46.75 5.07589 47.8571 6.43304 47.8571H31.5259C32.883 47.8571 33.9902 46.75 33.9902 45.3928V4.60712C33.9902 3.24996 32.883 2.14282 31.5259 2.14282ZM32.9188 45.3928C32.9188 46.1643 32.2973 46.7857 31.5259 46.7857H6.43305C5.66876 46.7857 5.04019 46.1643 5.04019 45.3928V4.60712C5.04019 3.83567 5.66876 3.21425 6.43305 3.21425H31.5259C32.2973 3.21425 32.9188 3.83568 32.9188 4.60712V45.3928Z" fill="#8753D4"/>
<path d="M29.9681 8.07129H7.99665C7.69667 8.07129 7.46094 8.31417 7.46094 8.607V38.5427C7.46094 38.8356 7.69667 39.0785 7.99665 39.0785H29.9681C30.2609 39.0785 30.5038 38.8356 30.5038 38.5427V8.607C30.5038 8.31416 30.2609 8.07129 29.9681 8.07129ZM29.4324 38.007H8.53237V9.14272H29.4324V38.007Z" fill="#8753D4"/>
<path d="M8.53906 9.14282V38.0071H29.4391V9.14282H8.53906ZM12.4748 29.9V21.2714H11.9533C11.5819 21.2714 11.2533 21.05 11.1248 20.7C10.9962 20.35 11.0891 19.9643 11.3748 19.7142L18.4034 13.6C18.739 13.3143 19.2391 13.3143 19.5676 13.6L26.6033 19.7142C26.8819 19.9643 26.9819 20.35 26.8462 20.7C26.7177 21.05 26.3891 21.2714 26.0176 21.2714H25.4962V29.9C25.4962 30.3786 25.1105 30.7714 24.6248 30.7714H13.3533C12.8676 30.7714 12.4748 30.3786 12.4748 29.9ZM21.2819 36.2857H20.839C20.5391 36.2857 20.3033 36.0428 20.3033 35.75C20.3033 35.4571 20.5391 35.2143 20.839 35.2143H21.2819C21.5748 35.2143 21.8176 35.4571 21.8176 35.75C21.8176 36.0428 21.5748 36.2857 21.2819 36.2857ZM27.1819 36.2857H23.0748C22.7819 36.2857 22.539 36.0428 22.539 35.75C22.539 35.4571 22.7819 35.2143 23.0748 35.2143H27.1819C27.4748 35.2143 27.7176 35.4571 27.7176 35.75C27.7176 36.0428 27.4748 36.2857 27.1819 36.2857Z" fill="#8753D4" fill-opacity="0.6"/>
<path d="M21.819 35.7501C21.819 36.0429 21.5761 36.2858 21.2833 36.2858H20.8404C20.5404 36.2858 20.3047 36.0429 20.3047 35.7501C20.3047 35.4572 20.5404 35.2144 20.8404 35.2144H21.2833C21.5761 35.2144 21.819 35.4572 21.819 35.7501Z" fill="#8753D4"/>
<path d="M27.7176 35.7501C27.7176 36.0429 27.4748 36.2858 27.1819 36.2858H23.0748C22.7819 36.2858 22.5391 36.0429 22.5391 35.7501C22.5391 35.4572 22.7819 35.2144 23.0748 35.2144H27.1819C27.4748 35.2144 27.7176 35.4572 27.7176 35.7501Z" fill="#8753D4"/>
<path d="M16.3795 6.17885H16.7471C17.0428 6.17885 17.2828 5.93889 17.2828 5.64314C17.2828 5.34738 17.0428 5.10742 16.7471 5.10742H16.3795C16.0837 5.10742 15.8438 5.34738 15.8438 5.64314C15.8438 5.93889 16.0837 6.17885 16.3795 6.17885Z" fill="#8753D4"/>
<path d="M18.5123 6.17885H21.5864C21.8821 6.17885 22.1221 5.93889 22.1221 5.64314C22.1221 5.34738 21.8821 5.10742 21.5864 5.10742H18.5123C18.2165 5.10742 17.9766 5.34738 17.9766 5.64314C17.9766 5.93889 18.2165 6.17885 18.5123 6.17885Z" fill="#8753D4"/>
<path d="M18.9766 40.9214C17.8766 40.9214 16.9766 41.8214 16.9766 42.9285C16.9766 44.0428 17.8766 44.9428 18.9766 44.9428C20.0908 44.9428 20.9908 44.0428 20.9908 42.9285C20.9908 41.8214 20.0908 40.9214 18.9766 40.9214ZM18.9766 43.8714C18.4623 43.8714 18.048 43.45 18.048 42.9285C18.048 42.4143 18.4623 41.9928 18.9766 41.9928C19.498 41.9928 19.9194 42.4143 19.9194 42.9285C19.9194 43.45 19.498 43.8714 18.9766 43.8714Z" fill="#8753D4"/>
<path d="M19.9261 42.9284C19.9261 43.4498 19.5047 43.8713 18.9833 43.8713C18.469 43.8713 18.0547 43.4498 18.0547 42.9284C18.0547 42.4141 18.469 41.9927 18.9833 41.9927C19.5047 41.9927 19.9261 42.4141 19.9261 42.9284Z" fill="#8753D4" fill-opacity="0.6"/>
<path d="M26.6056 19.7143L19.5699 13.6C19.2413 13.3143 18.7413 13.3143 18.4056 13.6L11.377 19.7143C11.0913 19.9643 10.9985 20.35 11.127 20.7C11.2556 21.05 11.5842 21.2715 11.9556 21.2715H12.477V29.9C12.477 30.3786 12.8699 30.7715 13.3556 30.7715H24.627C25.1127 30.7715 25.4984 30.3786 25.4984 29.9V21.2715H26.0199C26.3913 21.2715 26.7199 21.05 26.8484 20.7C26.9842 20.35 26.8842 19.9643 26.6056 19.7143ZM20.5628 29.7H17.4699V26.0072C17.4699 25.15 18.1627 24.4572 19.0199 24.4572C19.8699 24.4572 20.5627 25.15 20.5627 26.0072L20.5628 29.7ZM24.427 29.7H21.6342V26.0072C21.6342 24.5643 20.4627 23.3857 19.0199 23.3857C17.5699 23.3857 16.3985 24.5643 16.3985 26.0072V29.7H13.5485V21.2715H24.427V29.7ZM12.4484 20.2L18.9913 14.5143L25.5341 20.2H12.4484Z" fill="#8753D4"/>
</svg>
