<svg width="50" height="50" viewBox="0 0 50 50" fill="none" xmlns="http://www.w3.org/2000/svg">
<mask id="path-1-outside-1_2007_749" maskUnits="userSpaceOnUse" x="0" y="8" width="50" height="35" fill="black">
<rect fill="white" y="8" width="50" height="35"/>
<path fill-rule="evenodd" clip-rule="evenodd" d="M20.9732 12.5434C22.5219 10.9824 24.6772 10.0158 27.0584 10.0158C30.2332 10.0158 32.9847 11.7236 34.4663 14.2682C35.7815 13.699 37.2059 13.4051 38.6465 13.4058C44.3612 13.4058 49 17.9315 49 23.516C49 29.1005 44.3612 33.6262 38.6465 33.6262C37.948 33.6262 37.2672 33.5582 36.6005 33.4298C35.3041 35.667 32.826 37.187 30.0039 37.187C28.8549 37.1892 27.7207 36.9368 26.688 36.4492C25.3739 39.4379 22.3137 41.5385 18.7509 41.5385C15.0293 41.5385 11.8721 39.2671 10.655 36.0735C10.1134 36.1842 9.56124 36.2398 9.00764 36.2395C4.58051 36.2395 1 32.7214 1 28.4007C1 25.4974 2.61211 22.9698 5.00382 21.6036C4.49642 20.4718 4.23524 19.251 4.23657 18.0172C4.23657 13.0304 8.41677 9 13.5671 9C16.5832 9 19.2818 10.3919 20.975 12.5522"/>
</mask>
<path fill-rule="evenodd" clip-rule="evenodd" d="M20.9732 12.5434C22.5219 10.9824 24.6772 10.0158 27.0584 10.0158C30.2332 10.0158 32.9847 11.7236 34.4663 14.2682C35.7815 13.699 37.2059 13.4051 38.6465 13.4058C44.3612 13.4058 49 17.9315 49 23.516C49 29.1005 44.3612 33.6262 38.6465 33.6262C37.948 33.6262 37.2672 33.5582 36.6005 33.4298C35.3041 35.667 32.826 37.187 30.0039 37.187C28.8549 37.1892 27.7207 36.9368 26.688 36.4492C25.3739 39.4379 22.3137 41.5385 18.7509 41.5385C15.0293 41.5385 11.8721 39.2671 10.655 36.0735C10.1134 36.1842 9.56124 36.2398 9.00764 36.2395C4.58051 36.2395 1 32.7214 1 28.4007C1 25.4974 2.61211 22.9698 5.00382 21.6036C4.49642 20.4718 4.23524 19.251 4.23657 18.0172C4.23657 13.0304 8.41677 9 13.5671 9C16.5832 9 19.2818 10.3919 20.975 12.5522" fill="white"/>
<path d="M34.4663 14.2682L33.6021 14.7714L34.0488 15.5386L34.8635 15.186L34.4663 14.2682ZM38.6465 13.4058L38.646 14.4058H38.6465V13.4058ZM36.6005 33.4298L36.7897 32.4479L36.0917 32.3134L35.7353 32.9284L36.6005 33.4298ZM30.0039 37.187L30.0039 36.187L30.002 36.187L30.0039 37.187ZM26.688 36.4492L27.1149 35.5449L26.186 35.1063L25.7725 36.0467L26.688 36.4492ZM10.655 36.0735L11.5895 35.7174L11.287 34.9237L10.4548 35.0937L10.655 36.0735ZM9.00764 36.2395L9.00823 35.2395H9.00764V36.2395ZM5.00382 21.6036L5.49984 22.4719L6.28733 22.0221L5.91631 21.1945L5.00382 21.6036ZM4.23657 18.0172L5.23657 18.0183V18.0172H4.23657ZM21.6832 13.2477C23.0505 11.8694 24.9529 11.0158 27.0584 11.0158V9.0158C24.4015 9.0158 21.9932 10.0954 20.2633 11.8391L21.6832 13.2477ZM27.0584 11.0158C29.8638 11.0158 32.2928 12.5226 33.6021 14.7714L35.3305 13.7651C33.6767 10.9246 30.6026 9.0158 27.0584 9.0158V11.0158ZM34.8635 15.186C36.0525 14.6713 37.3415 14.4052 38.646 14.4058L38.647 12.4058C37.0704 12.405 35.5104 12.7266 34.0691 13.3505L34.8635 15.186ZM38.6465 14.4058C43.8317 14.4058 48 18.5063 48 23.516H50C50 17.3566 44.8907 12.4058 38.6465 12.4058V14.4058ZM48 23.516C48 28.5257 43.8317 32.6262 38.6465 32.6262V34.6262C44.8907 34.6262 50 29.6753 50 23.516H48ZM38.6465 32.6262C38.0135 32.6262 37.396 32.5647 36.7897 32.4479L36.4114 34.4118C37.1384 34.5518 37.8826 34.6262 38.6465 34.6262V32.6262ZM35.7353 32.9284C34.6147 34.8623 32.4633 36.187 30.0039 36.187V38.187C33.1887 38.187 35.9935 36.4718 37.4657 33.9312L35.7353 32.9284ZM30.002 36.187C29.0004 36.1889 28.0127 35.9688 27.1149 35.5449L26.261 37.3535C27.4286 37.9048 28.7095 38.1895 30.0058 38.187L30.002 36.187ZM25.7725 36.0467C24.6177 38.6734 21.9159 40.5385 18.7509 40.5385V42.5385C22.7116 42.5385 26.1302 40.2023 27.6034 36.8517L25.7725 36.0467ZM18.7509 40.5385C15.4424 40.5385 12.6581 38.5217 11.5895 35.7174L9.72058 36.4296C11.086 40.0125 14.6161 42.5385 18.7509 42.5385V40.5385ZM10.4548 35.0937C9.97932 35.1909 9.49447 35.2398 9.00823 35.2395L9.00706 37.2395C9.62801 37.2398 10.2474 37.1774 10.8552 37.0532L10.4548 35.0937ZM9.00764 35.2395C5.1137 35.2395 2 32.1502 2 28.4007H0C0 33.2926 4.04732 37.2395 9.00764 37.2395V35.2395ZM2 28.4007C2 25.8809 3.3978 23.6727 5.49984 22.4719L4.50781 20.7353C1.82643 22.267 0 25.1139 0 28.4007H2ZM5.91631 21.1945C5.46643 20.191 5.23539 19.1099 5.23657 18.0183L3.23657 18.0161C3.23509 19.3921 3.52641 20.7526 4.09133 22.0127L5.91631 21.1945ZM5.23657 18.0172C5.23657 13.6153 8.9359 10 13.5671 10V8C7.89765 8 3.23657 12.4455 3.23657 18.0172H5.23657ZM13.5671 10C16.273 10 18.6825 11.2483 20.188 13.1691L21.7621 11.9354C19.8811 9.53542 16.8933 8 13.5671 8V10Z" fill="#8753D4" mask="url(#path-1-outside-1_2007_749)"/>
<path fill-rule="evenodd" clip-rule="evenodd" d="M7.06371 25.93C7.03201 26.0119 7.07502 26.029 7.08522 26.0435C7.17997 26.1114 7.27621 26.1606 7.37263 26.2158C7.88811 26.4856 8.37392 26.5646 8.88197 26.5646C9.91664 26.5646 10.5601 26.0194 10.5601 25.142V25.1248C10.5601 24.3135 9.8332 24.0179 9.15455 23.8068L9.06573 23.7784C8.55211 23.6136 8.10894 23.47 8.10894 23.136V23.1189C8.10894 22.8325 8.36854 22.6215 8.76905 22.6215C9.21407 22.6215 9.74438 22.7681 10.0837 22.9537C10.0837 22.9537 10.1842 23.0179 10.2207 22.9219C10.2406 22.87 10.4136 22.4117 10.4321 22.3603C10.4518 22.3065 10.4173 22.2659 10.3819 22.245C9.99247 22.01 9.45475 21.8503 8.89848 21.8503L8.7952 21.8507C7.84768 21.8507 7.18572 22.4179 7.18572 23.2292V23.2466C7.18572 24.102 7.91629 24.381 8.59865 24.5737L8.70842 24.6075C9.20535 24.7588 9.63554 24.8902 9.63554 25.2353V25.2525C9.63554 25.5701 9.35555 25.8069 8.90682 25.8069C8.73234 25.8069 8.17625 25.8039 7.57363 25.4269C7.50076 25.3849 7.45922 25.3546 7.40304 25.3206C7.37337 25.3028 7.2992 25.2707 7.26694 25.3669L7.06297 25.9286M22.2121 25.9286C22.1803 26.0104 22.2234 26.0275 22.2339 26.042C22.3283 26.1099 22.4249 26.1591 22.5213 26.2143C23.0368 26.4842 23.5226 26.5631 24.0307 26.5631C25.0654 26.5631 25.7088 26.0179 25.7088 25.1406V25.1233C25.7088 24.312 24.9838 24.0165 24.3033 23.8054L24.2144 23.7769C23.7008 23.6121 23.2577 23.4686 23.2577 23.1345V23.1174C23.2577 22.8311 23.5172 22.62 23.9178 22.62C24.3628 22.62 24.8912 22.7666 25.2324 22.9522C25.2324 22.9522 25.3329 23.0165 25.3696 22.9205C25.3893 22.8685 25.5625 22.4102 25.5792 22.3588C25.599 22.305 25.5643 22.2644 25.5291 22.2435C25.1397 22.0086 24.602 21.8489 24.0457 21.8489L23.9422 21.8492C22.9947 21.8492 22.3328 22.4164 22.3328 23.2277V23.2452C22.3328 24.1005 23.0633 24.3795 23.7457 24.5723L23.8553 24.606C24.3541 24.7573 24.7824 24.8887 24.7824 25.2338V25.2511C24.7824 25.5686 24.5024 25.8054 24.0537 25.8054C23.8788 25.8054 23.3213 25.8025 22.7205 25.4254C22.6476 25.3834 22.605 25.3544 22.5497 25.3192C22.531 25.3074 22.4436 25.2736 22.4138 25.3654L22.2098 25.9271M32.5565 24.209C32.5565 24.7046 32.463 25.0956 32.2802 25.3728C32.0977 25.6462 31.8222 25.7802 31.4383 25.7802C31.0545 25.7802 30.7801 25.6473 30.6002 25.3746C30.4191 25.0993 30.3277 24.7064 30.3277 24.2109C30.3277 23.7153 30.4196 23.3261 30.6002 23.0526C30.7797 22.781 31.0527 22.6506 31.4383 22.6506C31.824 22.6506 32.0985 22.7822 32.2802 23.0526C32.4641 23.3261 32.5565 23.7153 32.5565 24.2109M33.4205 23.2912C33.3354 23.0067 33.2036 22.7571 33.0274 22.5479C32.8511 22.3386 32.6288 22.1697 32.3636 22.0486C32.1003 21.9265 31.7888 21.865 31.4365 21.865C31.0842 21.865 30.7745 21.9269 30.5094 22.0486C30.2461 22.1705 30.0217 22.3386 29.8456 22.5479C29.6698 22.7571 29.5378 23.0067 29.4525 23.2912C29.3681 23.5739 29.3253 23.8823 29.3253 24.2109C29.3253 24.5394 29.3681 24.8478 29.4525 25.1305C29.5372 25.415 29.6694 25.6646 29.8456 25.8739C30.0219 26.0831 30.2461 26.2501 30.5094 26.3694C30.7745 26.4884 31.086 26.549 31.4365 26.549C31.7869 26.549 32.0985 26.4884 32.3618 26.3694C32.6251 26.2505 32.8494 26.0831 33.0256 25.8739C33.2015 25.6646 33.3334 25.415 33.4187 25.1305C33.5029 24.8478 33.5457 24.5394 33.5457 24.2109C33.5457 23.8841 33.5029 23.5739 33.4187 23.2912M40.5204 25.6407C40.492 25.5576 40.4101 25.589 40.4101 25.589C40.2845 25.6365 40.1505 25.6806 40.0077 25.7026C39.8638 25.725 39.7036 25.7362 39.5349 25.7362C39.1177 25.7362 38.7839 25.613 38.5466 25.3691C38.3074 25.125 38.1738 24.7321 38.1757 24.1998C38.177 23.7153 38.2953 23.3518 38.5076 23.0728C38.7171 22.7975 39.0398 22.6543 39.4663 22.6543C39.8223 22.6543 40.0948 22.6952 40.3804 22.7837C40.3804 22.7837 40.4481 22.8129 40.4805 22.7246C40.5564 22.5172 40.6124 22.3685 40.6938 22.1409C40.7167 22.0757 40.6604 22.0482 40.6398 22.0403C40.5278 21.997 40.2634 21.926 40.0631 21.896C39.8759 21.8678 39.6589 21.8531 39.4141 21.8531C39.0507 21.8531 38.7281 21.9146 38.4518 22.0365C38.1755 22.1582 37.9419 22.3265 37.7565 22.5357C37.571 22.745 37.4301 22.9946 37.3356 23.2791C37.2419 23.5618 37.1946 23.872 37.1946 24.2006C37.1946 24.9091 37.3875 25.4836 37.7694 25.904C38.1514 26.3261 38.7262 26.5391 39.4753 26.5391C39.9185 26.5391 40.3728 26.4504 40.6991 26.3225C40.6991 26.3225 40.7614 26.2927 40.7344 26.2208L40.5211 25.6407M42.0323 23.7318C42.0737 23.4564 42.1499 23.227 42.2697 23.049C42.449 22.7773 42.7221 22.6286 43.1059 22.6286C43.4898 22.6286 43.7438 22.778 43.9255 23.049C44.046 23.2279 44.0987 23.4656 44.1183 23.7318L42.0231 23.7314L42.0323 23.7318ZM44.9435 23.126C44.8699 22.8526 44.6876 22.5754 44.5689 22.4487C44.3798 22.2487 44.1962 22.1073 44.0126 22.0302C43.7476 21.9187 43.4625 21.8614 43.1745 21.8619C42.8092 21.8619 42.4773 21.923 42.2085 22.0473C41.9396 22.1725 41.7134 22.3428 41.5354 22.5557C41.3576 22.7687 41.2239 23.0201 41.1386 23.3083C41.0533 23.5928 41.0103 23.9049 41.0103 24.2316C41.0103 24.5657 41.055 24.8759 41.1428 25.1567C41.2317 25.4394 41.3746 25.6872 41.5675 25.8928C41.7603 26.1002 42.0069 26.2617 42.3036 26.3755C42.5984 26.4884 42.9563 26.5469 43.3661 26.5457C44.2116 26.5429 44.6566 26.3566 44.8383 26.2556C44.8708 26.2377 44.9014 26.2066 44.8632 26.1172L44.6722 25.5868C44.6429 25.5077 44.5621 25.5363 44.5621 25.5363C44.3525 25.6138 44.0558 25.7529 43.3605 25.7511C42.9062 25.7503 42.5706 25.6176 42.3592 25.4096C42.1441 25.1967 42.0366 24.8865 42.0199 24.446L44.9496 24.4482C44.9496 24.4482 45.0267 24.4475 45.0347 24.3729C45.0378 24.3421 45.135 23.7782 44.9474 23.1266L44.9435 23.126ZM18.6134 23.7318C18.6547 23.4564 18.7311 23.227 18.8507 23.049C19.0302 22.7773 19.3031 22.6286 19.687 22.6286C20.0708 22.6286 20.3248 22.778 20.5065 23.049C20.6269 23.2279 20.6795 23.4656 20.6994 23.7318L18.6041 23.7314L18.6134 23.7318ZM21.5245 23.126C21.4511 22.8526 21.2686 22.5754 21.1499 22.4487C20.9608 22.2487 20.7772 22.1073 20.5937 22.0302C20.3287 21.9187 20.0436 21.8614 19.7556 21.8619C19.3903 21.8619 19.0584 21.923 18.7895 22.0473C18.5206 22.1725 18.2944 22.3428 18.1164 22.5557C17.939 22.7687 17.8049 23.0201 17.7196 23.3083C17.6345 23.5928 17.5917 23.9049 17.5917 24.2316C17.5917 24.5657 17.636 24.8759 17.7244 25.1567C17.8131 25.4394 17.9562 25.6872 18.1472 25.8928C18.34 26.1002 18.5867 26.2617 18.8833 26.3755C19.1782 26.4884 19.5342 26.5469 19.9458 26.5457C20.7913 26.5429 21.2364 26.3566 21.4181 26.2556C21.4503 26.2377 21.4811 26.2066 21.4427 26.1172L21.2517 25.5868C21.2223 25.5077 21.1414 25.5363 21.1414 25.5363C20.9319 25.6138 20.6352 25.7529 19.9399 25.7511C19.4874 25.7503 19.15 25.6176 18.9386 25.4096C18.7235 25.1967 18.616 24.8865 18.5993 24.446L21.529 24.4482C21.529 24.4482 21.6061 24.4475 21.6141 24.3729C21.6172 24.3421 21.7144 23.7782 21.5265 23.1266L21.5245 23.126ZM12.2904 25.6224C12.1756 25.5317 12.1597 25.5095 12.1217 25.4506C12.0637 25.3619 12.034 25.2358 12.034 25.0743C12.034 24.821 12.1193 24.6374 12.2954 24.5145C12.2936 24.5148 12.5476 24.2979 13.1447 24.3052C13.4104 24.3099 13.6756 24.3323 13.9383 24.3722V25.6883H13.9387C13.9387 25.6883 13.5678 25.7674 13.1488 25.7924C12.5535 25.8278 12.2902 25.6228 12.2921 25.6233L12.2904 25.6224ZM13.4549 23.5849C13.3362 23.5763 13.1823 23.5721 12.9987 23.5721C12.7484 23.5721 12.5055 23.6029 12.2793 23.6635C12.0512 23.7244 11.8454 23.8188 11.6693 23.9443C11.4926 24.0691 11.3473 24.2324 11.2446 24.4216C11.141 24.6125 11.0881 24.8364 11.0881 25.0897C11.0881 25.3467 11.1332 25.5688 11.2222 25.7505C11.3094 25.9308 11.4407 26.0866 11.6042 26.2039C11.7668 26.321 11.9676 26.4076 12.1994 26.459C12.4293 26.511 12.6889 26.5372 12.9745 26.5372C13.2748 26.5372 13.5734 26.5123 13.8626 26.464C14.109 26.4219 14.3544 26.3747 14.5988 26.3223C14.6963 26.3001 14.8046 26.2709 14.8046 26.2709C14.8769 26.2527 14.8713 26.1762 14.8713 26.1762L14.8697 23.533C14.8697 22.953 14.7132 22.5216 14.4043 22.2554C14.0964 21.9893 13.6459 21.8553 13.0618 21.8553C12.843 21.8553 12.4888 21.8847 12.2774 21.9267C12.2774 21.9267 11.6396 22.0493 11.3763 22.2534C11.3763 22.2534 11.3184 22.2887 11.35 22.3685L11.5576 22.9192C11.5834 22.9906 11.6537 22.9662 11.6537 22.9662C11.6537 22.9662 11.6757 22.9575 11.7017 22.9423C12.2635 22.6394 12.9756 22.6486 12.9756 22.6486C13.2908 22.6486 13.5355 22.7119 13.6987 22.8358C13.8584 22.9572 13.9398 23.1405 13.9398 23.526V23.6484C13.6894 23.6125 13.4577 23.5917 13.4577 23.5917L13.4549 23.5849ZM37.0036 22.0926C37.0079 22.083 37.0101 22.0725 37.0101 22.062C37.0102 22.0515 37.0081 22.041 37.004 22.0313C36.9999 22.0216 36.9939 22.0127 36.9863 22.0054C36.9786 21.998 36.9696 21.9922 36.9597 21.9884C36.9098 21.9697 36.6612 21.9177 36.4702 21.906C36.103 21.8832 35.8991 21.9445 35.7155 22.026C35.5342 22.107 35.3335 22.2371 35.2223 22.3876L35.2219 22.0352C35.2219 21.9867 35.1872 21.9476 35.1379 21.9476H34.3888C34.3402 21.9476 34.305 21.9867 34.305 22.0352V26.3487C34.305 26.372 34.3144 26.3943 34.3311 26.4108C34.3477 26.4273 34.3703 26.4366 34.3938 26.4366H35.1615C35.185 26.4366 35.2075 26.4273 35.2241 26.4108C35.2408 26.3943 35.2501 26.372 35.2501 26.3487V24.1828C35.2501 23.8928 35.2824 23.6046 35.3467 23.4229C35.4101 23.2432 35.4963 23.0998 35.6026 22.997C35.7039 22.8977 35.828 22.8241 35.9642 22.7822C36.092 22.7459 36.2243 22.7275 36.3573 22.7276C36.5102 22.7276 36.678 22.7665 36.678 22.7665C36.7344 22.7727 36.7657 22.7386 36.7848 22.6883C36.8351 22.5559 36.9777 22.1596 37.0055 22.0807" fill="#8753D4"/>
<path fill-rule="evenodd" clip-rule="evenodd" d="M29.834 20.1018C29.7391 20.0734 29.6425 20.0508 29.5449 20.0339C29.4135 20.0122 29.2805 20.002 29.1473 20.0034C28.6183 20.0034 28.2013 20.1514 27.9085 20.4436C27.6178 20.7336 27.4199 21.1754 27.3207 21.7568L27.2849 21.953H26.6209C26.6209 21.953 26.5399 21.9497 26.5229 22.0372L26.4138 22.6393C26.4062 22.6969 26.4313 22.7329 26.5091 22.7325H27.1555L26.4997 26.3564C26.4483 26.6483 26.3895 26.8884 26.3244 27.0703C26.2603 27.2498 26.1976 27.3843 26.1205 27.482C26.0458 27.5765 25.9749 27.6461 25.8527 27.6867C25.7519 27.7202 25.6358 27.7357 25.5086 27.7357C25.4378 27.7357 25.3436 27.7239 25.274 27.7102C25.2045 27.6966 25.1683 27.6811 25.1162 27.6595C25.1162 27.6595 25.0404 27.6309 25.0105 27.7061C24.9862 27.7676 24.814 28.2366 24.7936 28.2946C24.7728 28.3519 24.8019 28.397 24.8387 28.41C24.9247 28.4405 24.9887 28.46 25.1058 28.4873C25.2686 28.5253 25.4059 28.5277 25.5344 28.5277C25.8036 28.5277 26.0489 28.4903 26.2523 28.4176C26.457 28.3443 26.6352 28.2168 26.7928 28.044C26.9632 27.8577 27.0704 27.6626 27.1729 27.3965C27.2744 27.1327 27.3608 26.8052 27.4299 26.4236L28.0889 22.7325H29.0524C29.0524 22.7325 29.1336 22.7355 29.1505 22.6483L29.2595 22.0462C29.2671 21.9886 29.2423 21.9526 29.164 21.953H28.2289C28.2336 21.932 28.276 21.6064 28.3834 21.2999C28.4292 21.169 28.5154 21.0635 28.5885 20.991C28.6567 20.9219 28.7407 20.8702 28.8334 20.8401C28.935 20.809 29.041 20.7939 29.1473 20.7953C29.2354 20.7953 29.3218 20.8058 29.3876 20.8193C29.4783 20.8384 29.5135 20.8485 29.5373 20.8555C29.6326 20.8843 29.6454 20.8564 29.6641 20.8107L29.8877 20.2028C29.9107 20.1374 29.8547 20.1099 29.834 20.1018ZM16.7664 26.3641C16.7664 26.4126 16.7316 26.4521 16.6826 26.4521H15.907C15.8579 26.4521 15.823 26.4126 15.823 26.3641V20.1842C15.823 20.136 15.8579 20.0969 15.907 20.0969H16.6826C16.7316 20.0969 16.7664 20.136 16.7664 20.1842V26.3641Z" fill="#8753D4"/>
</svg>
