<svg width="50" height="50" viewBox="0 0 50 50" fill="none" xmlns="http://www.w3.org/2000/svg">
<g clip-path="url(#clip0_2004_6)">
<rect width="50" height="50" fill="white"/>
<circle cx="25" cy="25" r="24.5" fill="#8753D4" fill-opacity="0.6" stroke="#8753D4"/>
<mask id="path-2-outside-1_2004_6" maskUnits="userSpaceOnUse" x="5" y="12" width="41" height="29" fill="black">
<rect fill="white" x="5" y="12" width="41" height="29"/>
<path fill-rule="evenodd" clip-rule="evenodd" d="M22.2283 15.9402C23.4865 14.645 25.2377 13.8429 27.1724 13.8429C29.752 13.8429 31.9876 15.26 33.1914 17.3715C34.2599 16.8992 35.4173 16.6553 36.5878 16.6559C41.231 16.6559 45 20.4112 45 25.0452C45 29.6792 41.231 33.4345 36.5878 33.4345C36.0203 33.4345 35.4671 33.3781 34.9254 33.2715C33.8721 35.128 31.8586 36.3892 29.5657 36.3892C28.6321 36.391 27.7106 36.1816 26.8715 35.777C25.8038 38.2569 23.3174 40 20.4226 40C17.3988 40 14.8335 38.1152 13.8447 35.4652C13.4046 35.5571 12.956 35.6032 12.5062 35.603C8.90916 35.603 6 32.6837 6 29.0984C6 26.6893 7.30984 24.592 9.2531 23.4583C8.84084 22.5192 8.62863 21.5062 8.62971 20.4824C8.62971 16.3444 12.0261 13 16.2107 13C18.6613 13 20.8539 14.1549 22.2297 15.9476"/>
</mask>
<path fill-rule="evenodd" clip-rule="evenodd" d="M22.2283 15.9402C23.4865 14.645 25.2377 13.8429 27.1724 13.8429C29.752 13.8429 31.9876 15.26 33.1914 17.3715C34.2599 16.8992 35.4173 16.6553 36.5878 16.6559C41.231 16.6559 45 20.4112 45 25.0452C45 29.6792 41.231 33.4345 36.5878 33.4345C36.0203 33.4345 35.4671 33.3781 34.9254 33.2715C33.8721 35.128 31.8586 36.3892 29.5657 36.3892C28.6321 36.391 27.7106 36.1816 26.8715 35.777C25.8038 38.2569 23.3174 40 20.4226 40C17.3988 40 14.8335 38.1152 13.8447 35.4652C13.4046 35.5571 12.956 35.6032 12.5062 35.603C8.90916 35.603 6 32.6837 6 29.0984C6 26.6893 7.30984 24.592 9.2531 23.4583C8.84084 22.5192 8.62863 21.5062 8.62971 20.4824C8.62971 16.3444 12.0261 13 16.2107 13C18.6613 13 20.8539 14.1549 22.2297 15.9476" fill="white"/>
<path d="M33.1914 17.3715L32.3226 17.8668L32.7698 18.6512L33.5957 18.2861L33.1914 17.3715ZM36.5878 16.6559L36.5873 17.6559H36.5878V16.6559ZM34.9254 33.2715L35.1184 32.2903L34.4113 32.1512L34.0557 32.7781L34.9254 33.2715ZM29.5657 36.3892V35.3892L29.5637 35.3892L29.5657 36.3892ZM26.8715 35.777L27.3058 34.8763L26.3657 34.4229L25.953 35.3816L26.8715 35.777ZM13.8447 35.4652L14.7816 35.1156L14.4813 34.3108L13.6404 34.4863L13.8447 35.4652ZM12.5062 35.603L12.5068 34.603H12.5062V35.603ZM9.2531 23.4583L9.75702 24.3221L10.5272 23.8728L10.1688 23.0563L9.2531 23.4583ZM8.62971 20.4824L9.62971 20.4834V20.4824H8.62971ZM22.9455 16.637C24.0244 15.5265 25.5205 14.8429 27.1724 14.8429V12.8429C24.955 12.8429 22.9486 13.7635 21.511 15.2434L22.9455 16.637ZM27.1724 14.8429C29.3722 14.8429 31.2863 16.0491 32.3226 17.8668L34.0601 16.8762C32.6888 14.4709 30.1317 12.8429 27.1724 12.8429V14.8429ZM33.5957 18.2861C34.5365 17.8703 35.556 17.6554 36.5873 17.6559L36.5883 15.6559C35.2787 15.6552 33.9834 15.9281 32.7871 16.4569L33.5957 18.2861ZM36.5878 17.6559C40.6815 17.6559 44 20.9663 44 25.0452H46C46 19.8561 41.7804 15.6559 36.5878 15.6559V17.6559ZM44 25.0452C44 29.124 40.6815 32.4345 36.5878 32.4345V34.4345C41.7804 34.4345 46 30.2343 46 25.0452H44ZM36.5878 32.4345C36.0872 32.4345 35.5986 32.3848 35.1184 32.2903L34.7324 34.2527C35.3356 34.3714 35.9534 34.4345 36.5878 34.4345V32.4345ZM34.0557 32.7781C33.1734 34.333 31.4855 35.3892 29.5657 35.3892V37.3892C32.2317 37.3892 34.5708 35.9229 35.7952 33.765L34.0557 32.7781ZM29.5637 35.3892C28.7809 35.3907 28.0085 35.2151 27.3058 34.8763L26.4371 36.6777C27.4126 37.1481 28.4834 37.3913 29.5676 37.3892L29.5637 35.3892ZM25.953 35.3816C25.0391 37.5043 22.9075 39 20.4226 39V41C23.7273 41 26.5685 39.0096 27.79 36.1724L25.953 35.3816ZM20.4226 39C17.8248 39 15.6275 37.3827 14.7816 35.1156L12.9078 35.8148C14.0395 38.8478 16.9727 41 20.4226 41V39ZM13.6404 34.4863C13.2677 34.5641 12.8878 34.6032 12.5068 34.603L12.5056 36.603C13.0242 36.6033 13.5415 36.5501 14.049 36.4441L13.6404 34.4863ZM12.5062 34.603C9.46229 34.603 7 32.1323 7 29.0984H5C5 33.2352 8.35604 36.603 12.5062 36.603V34.603ZM7 29.0984C7 27.0625 8.10553 25.2855 9.75702 24.3221L8.74919 22.5945C6.51415 23.8985 5 26.3162 5 29.0984H7ZM10.1688 23.0563C9.81216 22.244 9.62878 21.3682 9.62971 20.4834L7.62971 20.4813C7.62849 21.6441 7.86952 22.7943 8.33745 23.8603L10.1688 23.0563ZM9.62971 20.4824C9.62971 16.9097 12.5653 14 16.2107 14V12C11.4869 12 7.62971 15.7791 7.62971 20.4824H9.62971ZM16.2107 14C18.3427 14 20.2451 15.0042 21.4364 16.5564L23.023 15.3388C21.4627 13.3057 18.9799 12 16.2107 12V14Z" fill="#8753D4" mask="url(#path-2-outside-1_2004_6)"/>
<path fill-rule="evenodd" clip-rule="evenodd" d="M10.9268 27.0483C10.901 27.1163 10.936 27.1304 10.9443 27.1425C11.0213 27.1988 11.0995 27.2396 11.1778 27.2855C11.5966 27.5094 11.9913 27.5749 12.4041 27.5749C13.2448 27.5749 13.7676 27.1225 13.7676 26.3945V26.3801C13.7676 25.7069 13.177 25.4617 12.6256 25.2865L12.5534 25.2629C12.1361 25.1262 11.776 25.0071 11.776 24.7298V24.7157C11.776 24.4781 11.987 24.3029 12.3124 24.3029C12.674 24.3029 13.1048 24.4246 13.3805 24.5786C13.3805 24.5786 13.4622 24.6319 13.4919 24.5523C13.508 24.5091 13.6486 24.1288 13.6636 24.0862C13.6796 24.0416 13.6516 24.0079 13.6228 23.9905C13.3064 23.7956 12.8695 23.6631 12.4175 23.6631L12.3336 23.6634C11.5638 23.6634 11.0259 24.134 11.0259 24.8072V24.8217C11.0259 25.5315 11.6195 25.763 12.1739 25.9229L12.2631 25.9509C12.6669 26.0764 13.0164 26.1855 13.0164 26.4718V26.4861C13.0164 26.7496 12.7889 26.9461 12.4243 26.9461C12.2826 26.9461 11.8307 26.9437 11.3411 26.6308C11.2819 26.596 11.2481 26.5708 11.2025 26.5427C11.1784 26.5279 11.1181 26.5012 11.0919 26.581L10.9262 27.0471M23.2348 27.0471C23.2091 27.115 23.244 27.1292 23.2526 27.1412C23.3293 27.1976 23.4078 27.2384 23.4861 27.2843C23.9049 27.5082 24.2997 27.5736 24.7125 27.5736C25.5531 27.5736 26.0759 27.1213 26.0759 26.3932V26.3789C26.0759 25.7057 25.4868 25.4605 24.9339 25.2853L24.8618 25.2617C24.4444 25.1249 24.0844 25.0058 24.0844 24.7286V24.7145C24.0844 24.4769 24.2953 24.3017 24.6207 24.3017C24.9823 24.3017 25.4117 24.4234 25.6889 24.5774C25.6889 24.5774 25.7705 24.6307 25.8004 24.551C25.8163 24.5079 25.957 24.1276 25.9706 24.085C25.9867 24.0403 25.9585 24.0067 25.9299 23.9893C25.6135 23.7944 25.1766 23.6618 24.7247 23.6618L24.6406 23.6621C23.8707 23.6621 23.3329 24.1328 23.3329 24.806V24.8205C23.3329 25.5302 23.9265 25.7618 24.4809 25.9217L24.5699 25.9497C24.9752 26.0752 25.3232 26.1843 25.3232 26.4706V26.4849C25.3232 26.7484 25.0957 26.9449 24.7311 26.9449C24.5891 26.9449 24.1361 26.9425 23.6479 26.6296C23.5887 26.5947 23.5541 26.5707 23.5092 26.5414C23.494 26.5317 23.423 26.5037 23.3987 26.5798L23.233 27.0459M31.6396 25.6203C31.6396 26.0315 31.5637 26.3559 31.4152 26.5859C31.2669 26.8129 31.043 26.924 30.7312 26.924C30.4193 26.924 30.1964 26.8138 30.0502 26.5874C29.903 26.359 29.8288 26.033 29.8288 25.6218C29.8288 25.2105 29.9035 24.8876 30.0502 24.6607C30.1961 24.4353 30.4178 24.3271 30.7312 24.3271C31.0446 24.3271 31.2675 24.4363 31.4152 24.6607C31.5646 24.8876 31.6396 25.2105 31.6396 25.6218M32.3417 24.8587C32.2726 24.6226 32.1654 24.4155 32.0223 24.2418C31.879 24.0682 31.6984 23.9281 31.483 23.8276C31.269 23.7263 31.0159 23.6752 30.7297 23.6752C30.4434 23.6752 30.1918 23.7266 29.9764 23.8276C29.7625 23.9287 29.5802 24.0682 29.437 24.2418C29.2942 24.4155 29.187 24.6226 29.1177 24.8587C29.0491 25.0933 29.0143 25.3491 29.0143 25.6218C29.0143 25.8944 29.0491 26.1503 29.1177 26.3849C29.1865 26.6209 29.2939 26.8281 29.437 27.0017C29.5803 27.1754 29.7625 27.314 29.9764 27.413C30.1918 27.5117 30.4449 27.5619 30.7297 27.5619C31.0144 27.5619 31.2675 27.5117 31.4815 27.413C31.6954 27.3143 31.8777 27.1754 32.0208 27.0017C32.1638 26.8281 32.2709 26.6209 32.3402 26.3849C32.4086 26.1503 32.4434 25.8944 32.4434 25.6218C32.4434 25.3507 32.4086 25.0933 32.3402 24.8587M38.1103 26.8083C38.0873 26.7393 38.0207 26.7653 38.0207 26.7653C37.9187 26.8048 37.8098 26.8413 37.6938 26.8596C37.5769 26.8782 37.4467 26.8875 37.3096 26.8875C36.9706 26.8875 36.6994 26.7853 36.5066 26.5829C36.3123 26.3803 36.2038 26.0543 36.2053 25.6126C36.2063 25.2105 36.3025 24.909 36.475 24.6775C36.6452 24.449 36.9074 24.3302 37.2539 24.3302C37.5431 24.3302 37.7646 24.3641 37.9966 24.4376C37.9966 24.4376 38.0516 24.4618 38.078 24.3885C38.1396 24.2164 38.1851 24.093 38.2512 23.9042C38.2699 23.8501 38.2241 23.8273 38.2074 23.8207C38.1164 23.7848 37.9015 23.7258 37.7388 23.701C37.5867 23.6775 37.4104 23.6653 37.2115 23.6653C36.9162 23.6653 36.6541 23.7164 36.4296 23.8175C36.2051 23.9185 36.0153 24.0582 35.8647 24.2318C35.714 24.4054 35.5995 24.6126 35.5227 24.8486C35.4466 25.0832 35.4082 25.3406 35.4082 25.6132C35.4082 26.2012 35.5648 26.6779 35.8752 27.0267C36.1856 27.377 36.6526 27.5537 37.2612 27.5537C37.6213 27.5537 37.9904 27.4801 38.2556 27.374C38.2556 27.374 38.3062 27.3493 38.2842 27.2896L38.1109 26.8083M39.3388 25.2242C39.3724 24.9958 39.4343 24.8054 39.5316 24.6577C39.6773 24.4322 39.8992 24.3089 40.2111 24.3089C40.523 24.3089 40.7294 24.4328 40.877 24.6577C40.9749 24.8062 41.0177 25.0034 41.0337 25.2242L39.3313 25.2239L39.3388 25.2242ZM41.7041 24.7216C41.6443 24.4947 41.4962 24.2647 41.3998 24.1596C41.2461 23.9936 41.097 23.8763 40.9478 23.8123C40.7325 23.7198 40.5008 23.6722 40.2668 23.6727C39.97 23.6727 39.7004 23.7234 39.4819 23.8265C39.2635 23.9304 39.0797 24.0717 38.935 24.2484C38.7906 24.4251 38.6819 24.6337 38.6126 24.8729C38.5433 25.1089 38.5084 25.3679 38.5084 25.639C38.5084 25.9162 38.5447 26.1736 38.6161 26.4066C38.6883 26.6412 38.8044 26.8468 38.9611 27.0174C39.1178 27.1895 39.3182 27.3235 39.5592 27.418C39.7987 27.5117 40.0895 27.5602 40.4225 27.5592C41.1095 27.5569 41.471 27.4023 41.6187 27.3185C41.645 27.3036 41.6699 27.2779 41.6389 27.2037L41.4837 26.7635C41.4599 26.6979 41.3942 26.7216 41.3942 26.7216C41.224 26.7859 40.9829 26.9013 40.4179 26.8998C40.0488 26.8992 39.7761 26.7891 39.6044 26.6165C39.4296 26.4398 39.3423 26.1824 39.3287 25.8169L41.7091 25.8187C41.7091 25.8187 41.7717 25.8181 41.7782 25.7563C41.7808 25.7307 41.8597 25.2628 41.7073 24.7221L41.7041 24.7216ZM20.3109 25.2242C20.3445 24.9958 20.4066 24.8054 20.5037 24.6577C20.6496 24.4322 20.8713 24.3089 21.1832 24.3089C21.495 24.3089 21.7014 24.4328 21.8491 24.6577C21.9469 24.8062 21.9897 25.0034 22.0058 25.2242L20.3034 25.2239L20.3109 25.2242ZM22.6762 24.7216C22.6165 24.4947 22.4683 24.2647 22.3719 24.1596C22.2182 23.9936 22.069 23.8763 21.9199 23.8123C21.7046 23.7198 21.4729 23.6722 21.2389 23.6727C20.9421 23.6727 20.6725 23.7234 20.454 23.8265C20.2356 23.9304 20.0518 24.0717 19.9071 24.2484C19.7629 24.4251 19.654 24.6337 19.5847 24.8729C19.5156 25.1089 19.4808 25.3679 19.4808 25.639C19.4808 25.9162 19.5168 26.1736 19.5886 26.4066C19.6607 26.6412 19.777 26.8468 19.9321 27.0174C20.0888 27.1895 20.2892 27.3235 20.5302 27.418C20.7698 27.5117 21.059 27.5602 21.3935 27.5592C22.0805 27.5569 22.4421 27.4023 22.5897 27.3185C22.6159 27.3036 22.6409 27.2779 22.6098 27.2037L22.4546 26.7635C22.4306 26.6979 22.3649 26.7216 22.3649 26.7216C22.1947 26.7859 21.9536 26.9013 21.3887 26.8998C21.0211 26.8992 20.7469 26.7891 20.5751 26.6165C20.4004 26.4398 20.313 26.1824 20.2994 25.8169L22.6798 25.8187C22.6798 25.8187 22.7425 25.8181 22.749 25.7563C22.7515 25.7307 22.8305 25.2628 22.6778 24.7221L22.6762 24.7216ZM15.1735 26.7931C15.0802 26.7178 15.0673 26.6994 15.0364 26.6505C14.9892 26.5769 14.9651 26.4723 14.9651 26.3383C14.9651 26.1281 15.0344 25.9757 15.1776 25.8737C15.1761 25.874 15.3825 25.694 15.8676 25.7001C16.0835 25.704 16.2989 25.7226 16.5124 25.7557V26.8477H16.5127C16.5127 26.8477 16.2114 26.9134 15.8709 26.9341C15.3873 26.9635 15.1734 26.7934 15.1749 26.7938L15.1735 26.7931ZM16.1196 25.1024C16.0232 25.0952 15.8982 25.0917 15.749 25.0917C15.5456 25.0917 15.3483 25.1173 15.1645 25.1676C14.9792 25.2182 14.8119 25.2964 14.6688 25.4006C14.5253 25.5041 14.4072 25.6396 14.3238 25.7966C14.2396 25.955 14.1966 26.1409 14.1966 26.351C14.1966 26.5643 14.2333 26.7486 14.3056 26.8994C14.3764 27.0489 14.4831 27.1782 14.6159 27.2756C14.748 27.3727 14.9112 27.4446 15.0995 27.4873C15.2863 27.5304 15.4973 27.5522 15.7293 27.5522C15.9733 27.5522 16.2159 27.5315 16.4509 27.4914C16.6511 27.4565 16.8505 27.4173 17.049 27.3738C17.1283 27.3554 17.2163 27.3312 17.2163 27.3312C17.275 27.3161 17.2705 27.2526 17.2705 27.2526L17.2691 25.0593C17.2691 24.578 17.142 24.2201 16.891 23.9992C16.6409 23.7784 16.2748 23.6672 15.8002 23.6672C15.6225 23.6672 15.3347 23.6915 15.163 23.7264C15.163 23.7264 14.6447 23.8282 14.4308 23.9975C14.4308 23.9975 14.3838 24.0268 14.4094 24.093L14.5781 24.55C14.599 24.6092 14.6561 24.589 14.6561 24.589C14.6561 24.589 14.6741 24.5818 14.6952 24.5692C15.1517 24.3178 15.7302 24.3255 15.7302 24.3255C15.9863 24.3255 16.1852 24.378 16.3177 24.4808C16.4475 24.5815 16.5136 24.7337 16.5136 25.0535V25.1551C16.3102 25.1252 16.1219 25.108 16.1219 25.108L16.1196 25.1024ZM35.253 23.8641C35.2564 23.8561 35.2582 23.8474 35.2583 23.8387C35.2583 23.8299 35.2566 23.8213 35.2533 23.8132C35.25 23.8051 35.2451 23.7978 35.2389 23.7917C35.2327 23.7856 35.2253 23.7808 35.2173 23.7776C35.1768 23.7621 34.9747 23.719 34.8196 23.7092C34.5213 23.6903 34.3555 23.7412 34.2064 23.8088C34.059 23.876 33.896 23.984 33.8056 24.1089L33.8053 23.8164C33.8053 23.7762 33.7772 23.7438 33.7371 23.7438H33.1284C33.089 23.7438 33.0603 23.7762 33.0603 23.8164V27.3957C33.0604 27.4151 33.068 27.4336 33.0815 27.4473C33.095 27.461 33.1134 27.4687 33.1325 27.4687H33.7562C33.7753 27.4687 33.7936 27.461 33.8071 27.4473C33.8207 27.4336 33.8282 27.4151 33.8282 27.3957V25.5985C33.8282 25.3578 33.8544 25.1187 33.9067 24.9679C33.9583 24.8188 34.0283 24.6998 34.1146 24.6145C34.197 24.5322 34.2978 24.471 34.4084 24.4363C34.5123 24.4062 34.6198 24.3909 34.7278 24.391C34.8521 24.391 34.9884 24.4232 34.9884 24.4232C35.0342 24.4284 35.0597 24.4001 35.0752 24.3584C35.116 24.2485 35.2319 23.9197 35.2545 23.8542" fill="#8753D4"/>
<path fill-rule="evenodd" clip-rule="evenodd" d="M29.4276 22.2121C29.3505 22.1886 29.2721 22.1698 29.1927 22.1558C29.086 22.1378 28.9779 22.1293 28.8697 22.1305C28.4399 22.1305 28.1011 22.2533 27.8632 22.4957C27.627 22.7364 27.4662 23.103 27.3856 23.5854L27.3565 23.7482H26.817C26.817 23.7482 26.7512 23.7455 26.7373 23.8181L26.6487 24.3177C26.6426 24.3655 26.6629 24.3954 26.7262 24.3951H27.2514L26.7185 27.4021C26.6768 27.6443 26.629 27.8435 26.5761 27.9945C26.524 28.1434 26.4731 28.2551 26.4104 28.3361C26.3497 28.4146 26.2921 28.4723 26.1929 28.5059C26.1109 28.5338 26.0166 28.5466 25.9132 28.5466C25.8557 28.5466 25.7792 28.5369 25.7227 28.5254C25.6662 28.5142 25.6368 28.5014 25.5945 28.4834C25.5945 28.4834 25.5328 28.4596 25.5086 28.5221C25.4888 28.5731 25.3489 28.9623 25.3323 29.0104C25.3154 29.0579 25.3391 29.0954 25.3689 29.1062C25.4388 29.1315 25.4908 29.1476 25.586 29.1703C25.7183 29.2018 25.8298 29.2038 25.9342 29.2038C26.1529 29.2038 26.3523 29.1728 26.5175 29.1124C26.6838 29.0517 26.8286 28.9458 26.9567 28.8025C27.0951 28.6479 27.1822 28.486 27.2655 28.2651C27.3479 28.0463 27.4181 27.7745 27.4743 27.4579L28.0098 24.3951H28.7926C28.7926 24.3951 28.8586 24.3975 28.8723 24.3252L28.9609 23.8256C28.967 23.7777 28.9469 23.7479 28.8833 23.7482H28.1235C28.1273 23.7308 28.1618 23.4606 28.249 23.2063C28.2862 23.0977 28.3563 23.0101 28.4156 22.9499C28.4711 22.8926 28.5393 22.8497 28.6147 22.8247C28.6972 22.7989 28.7833 22.7864 28.8697 22.7876C28.9413 22.7876 29.0115 22.7963 29.065 22.8075C29.1386 22.8234 29.1673 22.8317 29.1866 22.8375C29.264 22.8614 29.2744 22.8383 29.2896 22.8004L29.4713 22.2959C29.49 22.2417 29.4445 22.2188 29.4276 22.2121ZM18.8102 27.4085C18.8102 27.4487 18.7819 27.4815 18.7421 27.4815H18.1119C18.072 27.4815 18.0437 27.4487 18.0437 27.4085V22.2805C18.0437 22.2405 18.072 22.208 18.1119 22.208H18.7421C18.7819 22.208 18.8102 22.2405 18.8102 22.2805V27.4085Z" fill="#8753D4"/>
</g>
<defs>
<clipPath id="clip0_2004_6">
<rect width="50" height="50" fill="white"/>
</clipPath>
</defs>
</svg>
