<svg width="135" height="11" viewBox="0 0 135 11" fill="none" xmlns="http://www.w3.org/2000/svg">
<path d="M10.8074 3.73392C13.7338 3.32047 16.663 2.98932 19.591 2.62159C20.5568 2.49632 21.5309 2.46233 22.4983 2.38278C24.5986 2.20874 26.6991 2.04383 28.7994 1.86979C29.9673 1.77408 31.14 1.66905 32.3082 1.58248C32.6493 1.56142 32.9854 1.54051 33.3268 1.52859C34.09 1.50193 34.8538 1.49354 35.6173 1.47603C39.0871 1.36402 42.5619 1.25185 46.0313 1.1307C46.8597 1.10177 47.6844 1.10958 48.5135 1.09894C50.5636 1.07312 52.6091 1.05665 54.6542 1.03101C56.9657 1.00521 59.2709 0.942979 61.5844 0.972046C65.3257 1.00618 69.0623 1.04967 72.8035 1.08381C74.9711 1.10881 77.132 1.08825 79.3014 1.16812C83.0365 1.31232 86.7662 1.44756 90.501 1.58262C92.5396 1.6579 94.5822 1.7056 96.623 1.84489C100.488 2.10357 104.352 2.35308 108.217 2.61177C110.283 2.75018 112.347 2.83373 114.412 3.08203C118.268 3.5424 122.12 4.00295 125.977 4.46331C126.81 4.56239 127.643 4.66145 128.475 4.76053C130.141 4.95868 131.802 5.3035 133.466 5.58412C133.572 5.60787 133.674 5.63181 133.78 5.64641C133.979 5.74015 134.161 5.91686 134.316 6.17693C134.546 6.56256 134.69 7.10679 134.71 7.66453C134.729 8.22228 134.623 8.77523 134.421 9.18508C134.238 9.54851 133.908 9.88964 133.614 9.8358C131.607 9.49396 129.603 9.13365 127.599 8.89238C125.737 8.67363 123.879 8.44557 122.016 8.22682C119.987 7.98643 117.958 7.74602 115.928 7.50563C115.11 7.40603 114.291 7.26988 113.47 7.21617C110.311 7.00608 107.152 6.80511 103.993 6.59502C102.022 6.46243 100.053 6.339 98.0823 6.20641C97.2661 6.15252 96.4542 6.08015 95.6386 6.04455C92.5126 5.92485 89.3823 5.82359 86.257 5.72218C84.3596 5.66027 82.467 5.58905 80.5696 5.52715C79.9304 5.5037 79.2958 5.47091 78.6572 5.46575C75.2831 5.43711 71.9093 5.41764 68.5355 5.39814C66.6498 5.3816 64.7694 5.37402 62.8837 5.35748C62.2149 5.35337 61.5405 5.33112 60.8724 5.3453C57.3958 5.40262 53.9191 5.45999 50.4424 5.51731C48.2717 5.54734 46.1065 5.58632 43.9378 5.67121C40.248 5.81837 36.558 5.95637 32.8733 6.10335C32.1453 6.12877 31.4192 6.2091 30.6927 6.28024C28.6581 6.46114 26.6284 6.64186 24.5938 6.82277C23.0703 6.95836 21.5468 7.09391 20.0183 7.22968C18.9357 7.32241 17.8614 7.50643 16.7807 7.65402C13.6033 8.07623 10.4265 8.51675 7.25569 8.9845C6.45052 9.10417 5.646 9.24208 4.84147 9.38003C3.97669 9.52008 3.11222 9.66928 2.25469 9.87317C2.1204 9.91447 1.99146 9.96477 1.85781 10.0244C1.52086 10.1643 1.19321 10.1391 0.875765 9.8298C0.584058 9.53788 0.355642 9.04235 0.245158 8.46948C0.0222589 7.26887 0.378894 5.96559 1.02984 5.60415C1.60204 5.29122 2.2004 5.15136 2.79406 5.02078C3.20321 4.93326 3.60703 4.83676 4.01618 4.74924C4.79935 4.57542 5.59012 4.47453 6.37456 4.33728C7.84966 4.11183 9.3317 3.94108 10.8074 3.73392Z" fill="#FFDB5C"/>
</svg>
