<svg width="296" height="11" viewBox="0 0 296 11" fill="none" xmlns="http://www.w3.org/2000/svg">
<path d="M23.851 3.04731C30.2867 2.5926 36.724 2.22851 43.1606 1.82414C45.284 1.68638 47.4202 1.64916 49.5446 1.56174C54.1564 1.3705 58.7684 1.18933 63.3803 0.998087C65.9449 0.89292 68.5203 0.777499 71.0851 0.682401C71.8337 0.659271 72.5713 0.636313 73.32 0.623252C74.9938 0.594057 76.6679 0.584969 78.3418 0.565843C85.9508 0.443191 93.5709 0.320366 101.18 0.187645C102.997 0.155953 104.803 0.164727 106.62 0.153174C111.114 0.125154 115.597 0.10743 120.079 0.0796027C125.146 0.0516644 130.2 -0.0164076 135.268 0.0160688C143.463 0.0544117 151.648 0.103065 159.844 0.141408C164.592 0.169385 169.327 0.147175 174.076 0.235567C182.252 0.395123 190.417 0.544808 198.592 0.694295C203.055 0.777612 207.528 0.830549 211.991 0.98435C220.445 1.27 228.898 1.54555 237.351 1.83121C241.87 1.98405 246.387 2.07647 250.897 2.35034C259.321 2.85809 267.735 3.36604 276.159 3.87379C277.978 3.98307 279.797 4.09232 281.617 4.2016C285.255 4.42015 288.875 4.80022 292.504 5.10959C292.736 5.13576 292.957 5.16214 293.188 5.17825C293.62 5.28152 294.009 5.47615 294.333 5.76259C294.814 6.1873 295.1 6.78666 295.111 7.40088C295.121 8.01509 294.857 8.62401 294.391 9.07531C293.968 9.47549 293.226 9.85109 292.586 9.79175C288.207 9.41489 283.838 9.01769 279.46 8.7516C275.392 8.51033 271.334 8.2588 267.265 8.01753C262.833 7.75239 258.4 7.48723 253.967 7.2221C252.181 7.11225 250.394 6.96214 248.598 6.90283C241.687 6.67084 234.777 6.44888 227.867 6.21689C223.558 6.07047 219.248 5.93415 214.939 5.78773C213.154 5.72823 211.379 5.64837 209.594 5.609C202.751 5.47655 195.898 5.36441 189.056 5.25209C184.902 5.18354 180.759 5.10473 176.606 5.03617C175.206 5.01022 173.818 4.97399 172.419 4.96817C165.027 4.93595 157.636 4.91383 150.245 4.89167C146.114 4.87308 141.994 4.86435 137.863 4.84576C136.398 4.84109 134.922 4.81646 133.457 4.83194C125.836 4.89437 118.215 4.95683 110.594 5.01926C105.836 5.05189 101.089 5.09438 96.3325 5.18743C88.2395 5.34874 80.1463 5.49997 72.0642 5.66109C70.4676 5.68894 68.872 5.77725 67.2762 5.85544C62.8077 6.05425 58.3502 6.25286 53.8817 6.45167C50.5358 6.60068 47.1899 6.74965 43.833 6.89885C41.4556 7.00076 39.0909 7.20318 36.7146 7.3655C29.7283 7.82982 22.7424 8.3143 15.768 8.82877C13.9969 8.96038 12.2262 9.1121 10.4555 9.26385C8.55263 9.41791 6.64996 9.58204 4.75933 9.80639C4.46272 9.85185 4.1773 9.90722 3.88103 9.97282C3.13474 10.1268 2.41829 10.0991 1.74043 9.75835C1.11799 9.43682 0.645858 8.89108 0.436566 8.26018C0.0169563 6.93797 0.873035 5.50283 2.32004 5.10492C3.59175 4.76042 4.91082 4.60653 6.21906 4.46285C7.12059 4.36654 8.01093 4.26036 8.91246 4.16406C10.6385 3.9728 12.3768 3.86185 14.1035 3.71087C17.3486 3.46289 20.6056 3.27515 23.851 3.04731Z" fill="#FFDB5C"/>
</svg>
